<svg xmlns="http://www.w3.org/2000/svg" viewBox="0 0 200 200" width="200" height="200">
  <defs>
    <linearGradient id="metalGrad" x1="0%" y1="0%" x2="100%" y2="100%">
      <stop offset="0%" style="stop-color:#e0e0e0;stop-opacity:1" />
      <stop offset="50%" style="stop-color:#909090;stop-opacity:1" />
      <stop offset="100%" style="stop-color:#404040;stop-opacity:1" />
    </linearGradient>

    <linearGradient id="speedGrad" x1="0%" y1="0%" x2="100%" y2="0%">
      <stop offset="0%" style="stop-color:#ff8c00;stop-opacity:1" />
      <stop offset="100%" style="stop-color:#ffeb3b;stop-opacity:1" />
    </linearGradient>

    <filter id="dropShadow" x="-20%" y="-20%" width="140%" height="140%">
      <feGaussianBlur in="SourceAlpha" stdDeviation="3"/>
      <feOffset dx="2" dy="2" result="offsetblur"/>
      <feComponentTransfer>
        <feFuncA type="linear" slope="0.5"/>
      </feComponentTransfer>
      <feMerge>
        <feMergeNode in="offsetblur"/>
        <feMergeNode in="SourceGraphic"/>
      </feMerge>
    </filter>
  </defs>

  <path d="M100,20 L130,10 L145,35 L175,35 L180,65 L200,80 L185,105 L200,130 L180,145 L175,175 L145,175 L130,200 L100,190 L70,200 L55,175 L25,175 L20,145 L0,130 L15,105 L0,80 L20,65 L25,35 L55,35 L70,10 Z" 
        fill="url(#metalGrad)" 
        stroke="#333" 
        stroke-width="2"
        filter="url(#dropShadow)" />

  <circle cx="100" cy="105" r="55" fill="#222" stroke="#555" stroke-width="2" />

  <ellipse cx="100" cy="85" rx="35" ry="10" fill="none" stroke="#ccc" stroke-width="3" />
  <path d="M65,85 v30 a35,10 0 0,0 70,0 v-30" fill="none" stroke="#ccc" stroke-width="3" />
  <path d="M65,100 v15 a35,10 0 0,0 70,0 v-15" fill="none" stroke="#ccc" stroke-width="3" opacity="0.5" />

  <path d="M120,55 L85,105 L105,105 L80,155 L135,95 L110,95 Z" 
        fill="url(#speedGrad)" 
        stroke="#fff" 
        stroke-width="1"
        transform="translate(-5, 0)" />

</svg>